<?xml version="1.0" encoding="UTF-8" standalone="no"?>
<!-- Created with Inkscape (http://www.inkscape.org/) -->

<svg
   width="8.89184mm"
   height="11.151728mm"
   version="1.1"
   viewBox="0 0 8.89184 11.151728"
   id="svg2"
   xmlns="http://www.w3.org/2000/svg"
   xmlns:svg="http://www.w3.org/2000/svg">
  <defs
     id="defs2" />
  <path
     x="69.43251"
     y="20.081684"
     width="35.693695"
     height="42.066093"
     ry="0"
     d="M 0,0 H 3.6443764 A 5.2474637,5.5840664 0 0 1 8.8918401,5.5840664 5.2494566,5.5861872 0 0 1 3.6249451,11.151697 H 0 Z"
     fill="#cc3333"
     stroke-width="0.280037"
     vector-effect="non-scaling-stroke"
     style="fill-rule:nonzero;stroke:none;-inkscape-stroke:hairline"
     id="path1" />
  <path
     d="M 0.77041386,5.3240963 H 3.7765718 A 0.65256011,0.65256011 0 0 0 4.4291319,4.674817 l 0.00743,-1.4792404 A 0.65285115,0.65285115 0 0 0 3.7837154,2.5394447 H 0.77041386 V 1.144526 L 3.6532775,1.140216 a 1.7912595,1.7912595 0 0 1 1.7939318,1.7912595 v 0.3330268 h 0.7014016 a 0.28050772,0.28050772 0 0 1 0.2804812,0.2781265 l 0.00925,1.0918159 A 0.27889378,0.27889378 0 0 1 6.159451,4.9156906 H 5.4472016 V 8.3533785 A 0.56953491,0.56953491 0 0 1 4.8776667,8.9229134 H 4.6495776 L 4.6392484,9.7492497 A 0.29685876,0.29685876 0 0 1 4.3424161,10.042378 H 3.1198977 A 0.26587644,0.26587644 0 0 1 2.8540213,9.7765014 V 8.9229134 H 0.77034798 Z"
     fill="#ffffff"
     vector-effect="non-scaling-stroke"
     style="stroke:none;stroke-width:0.26458;-inkscape-stroke:hairline"
     id="path2" />
  <ellipse
     transform="scale(-1,1)"
     cx="-4.0278506"
     cy="7.7962599"
     rx="0.67556"
     ry="0.69621003"
     fill="#cc3333"
     stroke-width="0.26458"
     vector-effect="non-scaling-stroke"
     style="stroke:none;-inkscape-stroke:hairline"
     id="ellipse2" />
</svg>
