<?xml version="1.0" encoding="UTF-8" standalone="no"?>
<!-- Created with Inkscape (http://www.inkscape.org/) -->

<svg
   width="8.8918343mm"
   height="11.151726mm"
   version="1.1"
   viewBox="0 0 8.8918343 11.151726"
   id="svg2"
   xmlns="http://www.w3.org/2000/svg"
   xmlns:svg="http://www.w3.org/2000/svg">
  <defs
     id="defs2" />
  <g
     stroke="#000000"
     id="g2"
     transform="translate(-100.54215,-142.87373)">
    <path
       transform="matrix(0.24912,0,0,0.2651,83.245,137.55)"
       x="69.43251"
       y="20.081684"
       width="35.693695"
       height="42.066093"
       ry="0"
       d="M 69.433,20.082 H 84.062 A 21.064,21.064 45 0 1 105.126,41.146 21.072,21.072 135.19 0 1 83.984,62.148 H 69.433 Z"
       fill="#cc3333"
       stroke-width="1.0897"
       vector-effect="non-scaling-stroke"
       style="-inkscape-stroke:hairline"
       id="path1" />
    <path
       transform="matrix(-0.26458,0,0,0.26458,109.11,139.69)"
       d="M 29.471,32.156 H 18.109 A 2.4664,2.4664 44.856 0 1 15.6426,29.702 L 15.6145,24.1111 A 2.4675,2.4675 134.86 0 1 18.082,21.6312 H 29.471 V 16.359 L 18.575,16.3427 a 6.7702,6.7702 135.04 0 0 -6.7803,6.7702 v 1.2587 h -2.651 a 1.0602,1.0602 135.24 0 0 -1.0601,1.0512 l -0.034971,4.1266 a 1.0541,1.0541 45.243 0 0 1.0541,1.063 h 2.692 v 12.993 a 2.1526,2.1526 45 0 0 2.1526,2.1526 h 0.86208 l 0.03904,3.1232 a 1.122,1.122 44.642 0 0 1.1219,1.1079 h 4.6206 a 1.0049,1.0049 135 0 0 1.0049,-1.0049 V 45.758 h 7.8754 z"
       fill="#ffffff"
       vector-effect="non-scaling-stroke"
       style="-inkscape-stroke:hairline"
       id="path2" />
    <ellipse
       transform="scale(-1,1)"
       cx="-104.57"
       cy="150.67"
       rx="0.67556"
       ry="0.69621003"
       fill="#cc3333"
       stroke-width="0.26458"
       vector-effect="non-scaling-stroke"
       style="-inkscape-stroke:hairline"
       id="ellipse2" />
  </g>
</svg>
